<svg width="24" height="24" viewBox="0 0 24 24" fill="none" xmlns="http://www.w3.org/2000/svg">
<path d="M6.5 7.66667H18.1667C18.3877 7.66667 18.5996 7.57887 18.7559 7.42259C18.9122 7.26631 19 7.05435 19 6.83333C19 6.61232 18.9122 6.40036 18.7559 6.24408C18.5996 6.0878 18.3877 6 18.1667 6H6.5C6.27899 6 6.06702 6.0878 5.91074 6.24408C5.75446 6.40036 5.66667 6.61232 5.66667 6.83333C5.66667 7.05435 5.75446 7.26631 5.91074 7.42259C6.06702 7.57887 6.27899 7.66667 6.5 7.66667ZM19.8333 10.1667H4.83333C4.61232 10.1667 4.40036 10.2545 4.24408 10.4107C4.0878 10.567 4 10.779 4 11C4 11.221 4.0878 11.433 4.24408 11.5893C4.40036 11.7455 4.61232 11.8333 4.83333 11.8333H19.8333C20.0543 11.8333 20.2663 11.7455 20.4226 11.5893C20.5789 11.433 20.6667 11.221 20.6667 11C20.6667 10.779 20.5789 10.567 20.4226 10.4107C20.2663 10.2545 20.0543 10.1667 19.8333 10.1667ZM18.1667 14.3333H6.5C6.27899 14.3333 6.06702 14.4211 5.91074 14.5774C5.75446 14.7337 5.66667 14.9457 5.66667 15.1667C5.66667 15.3877 5.75446 15.5996 5.91074 15.7559C6.06702 15.9122 6.27899 16 6.5 16H18.1667C18.3877 16 18.5996 15.9122 18.7559 15.7559C18.9122 15.5996 19 15.3877 19 15.1667C19 14.9457 18.9122 14.7337 18.7559 14.5774C18.5996 14.4211 18.3877 14.3333 18.1667 14.3333Z" fill="white"/>
</svg>
