<svg width="25" height="25" viewBox="0 0 25 25" fill="none" xmlns="http://www.w3.org/2000/svg">
<path d="M20.2928 13.5318C20.0714 13.5318 19.8399 13.4614 19.6184 13.4111C19.17 13.3122 18.7293 13.1811 18.2999 13.0185C17.8329 12.8486 17.3197 12.8575 16.8589 13.0433C16.398 13.2291 16.0222 13.5788 15.8037 14.025L15.5823 14.478C14.6019 13.9326 13.701 13.2553 12.9049 12.4649C12.1145 11.6688 11.4372 10.7679 10.8919 9.78757L11.3146 9.50574C11.7609 9.28724 12.1105 8.91142 12.2964 8.45059C12.4822 7.98976 12.491 7.4765 12.3211 7.00956C12.1613 6.57919 12.0302 6.13871 11.9286 5.69101C11.8782 5.46957 11.838 5.23807 11.8078 5.00657C11.6856 4.29759 11.3142 3.65555 10.7606 3.19607C10.207 2.73659 9.50757 2.48986 8.78821 2.50032H5.76863C5.33485 2.49625 4.90528 2.58569 4.50918 2.76255C4.11307 2.93941 3.75972 3.19955 3.47318 3.52525C3.18664 3.85094 2.97364 4.23456 2.84869 4.64997C2.72373 5.06539 2.68975 5.50285 2.74905 5.93257C3.28527 10.1493 5.21105 14.0672 8.22219 17.0674C11.2333 20.0676 15.1582 21.9791 19.3769 22.5H19.7593C20.5016 22.5011 21.2182 22.2288 21.7724 21.735C22.0908 21.4502 22.3452 21.1011 22.5187 20.7107C22.6922 20.3203 22.7809 19.8976 22.7789 19.4704V16.4508C22.7666 15.7516 22.512 15.0784 22.0586 14.5461C21.6052 14.0138 20.9811 13.6553 20.2928 13.5318ZM20.7961 19.571C20.7959 19.7139 20.7653 19.8552 20.7063 19.9853C20.6473 20.1155 20.5612 20.2316 20.4539 20.3259C20.3417 20.4235 20.2102 20.4964 20.068 20.5398C19.9258 20.5831 19.776 20.596 19.6285 20.5775C15.859 20.0942 12.3576 18.3697 9.67669 15.676C6.99579 12.9824 5.28793 9.47287 4.8225 5.70107C4.80648 5.55363 4.82052 5.40448 4.86377 5.26262C4.90702 5.12076 4.97858 4.98914 5.07413 4.87572C5.16845 4.76836 5.28456 4.68231 5.41472 4.6233C5.54488 4.5643 5.68611 4.53368 5.82902 4.5335H8.8486C9.08267 4.52829 9.31123 4.60484 9.49494 4.74998C9.67865 4.89511 9.80602 5.09974 9.85513 5.32866C9.89539 5.60378 9.94572 5.87554 10.0061 6.14394C10.1224 6.67453 10.2771 7.19594 10.4691 7.70406L9.05997 8.3583C8.93949 8.41358 8.83111 8.49212 8.74106 8.5894C8.65101 8.68668 8.58107 8.80079 8.53524 8.92517C8.48942 9.04956 8.46861 9.18177 8.47402 9.31422C8.47943 9.44667 8.51095 9.57675 8.56678 9.69698C10.0154 12.7999 12.5096 15.2941 15.6125 16.7427C15.8575 16.8433 16.1324 16.8433 16.3774 16.7427C16.5029 16.6978 16.6183 16.6284 16.7168 16.5385C16.8153 16.4487 16.8949 16.3402 16.9511 16.2193L17.5752 14.8101C18.0955 14.9962 18.6266 15.1508 19.1655 15.2731C19.4339 15.3335 19.7057 15.3839 19.9808 15.4241C20.2097 15.4732 20.4143 15.6006 20.5595 15.7843C20.7046 15.968 20.7811 16.1966 20.7759 16.4306L20.7961 19.571Z" fill="#FF4822"/>
</svg>
