<svg width="24" height="25" viewBox="0 0 24 25" fill="none" xmlns="http://www.w3.org/2000/svg">
<path d="M12 2.5C10.0222 2.5 8.08879 3.08649 6.4443 4.1853C4.79981 5.28412 3.51809 6.8459 2.76121 8.67316C2.00433 10.5004 1.8063 12.5111 2.19215 14.4509C2.578 16.3907 3.53041 18.1725 4.92894 19.5711C6.32746 20.9696 8.10929 21.922 10.0491 22.3078C11.9889 22.6937 13.9996 22.4957 15.8268 21.7388C17.6541 20.9819 19.2159 19.7002 20.3147 18.0557C21.4135 16.4112 22 14.4778 22 12.5C22 11.1868 21.7413 9.88642 21.2388 8.67316C20.7362 7.45991 19.9997 6.35752 19.0711 5.42893C18.1425 4.50035 17.0401 3.76375 15.8268 3.2612C14.6136 2.75866 13.3132 2.5 12 2.5ZM12 20.5C10.4178 20.5 8.87103 20.0308 7.55544 19.1518C6.23985 18.2727 5.21447 17.0233 4.60897 15.5615C4.00347 14.0997 3.84504 12.4911 4.15372 10.9393C4.4624 9.38743 5.22433 7.96196 6.34315 6.84314C7.46197 5.72432 8.88743 4.9624 10.4393 4.65372C11.9911 4.34504 13.5997 4.50346 15.0615 5.10896C16.5233 5.71446 17.7727 6.73984 18.6518 8.05544C19.5308 9.37103 20 10.9177 20 12.5C20 14.6217 19.1571 16.6566 17.6569 18.1568C16.1566 19.6571 14.1217 20.5 12 20.5ZM12 6.5C11.7348 6.5 11.4804 6.60536 11.2929 6.79289C11.1054 6.98043 11 7.23478 11 7.5V11.92L8.9 13.13C8.70736 13.2392 8.5564 13.4092 8.47078 13.6134C8.38517 13.8176 8.36975 14.0444 8.42695 14.2583C8.48414 14.4722 8.61072 14.6611 8.78682 14.7953C8.96292 14.9296 9.17859 15.0015 9.4 15C9.57518 15.0012 9.7476 14.9564 9.9 14.87L12.5 13.37L12.59 13.28L12.75 13.15C12.7891 13.1005 12.8226 13.0468 12.85 12.99C12.8826 12.9363 12.9094 12.8793 12.93 12.82C12.9572 12.7564 12.9741 12.6889 12.98 12.62L13 12.5V7.5C13 7.23478 12.8946 6.98043 12.7071 6.79289C12.5196 6.60536 12.2652 6.5 12 6.5Z" fill="#FF4822"/>
</svg>
