<svg width="27" height="25" viewBox="0 0 27 25" fill="none" xmlns="http://www.w3.org/2000/svg">
<path d="M22.25 2.5H4.75C3.75544 2.5 2.80161 2.89509 2.09835 3.59835C1.39509 4.30161 1 5.25544 1 6.25V18.75C1 19.7446 1.39509 20.6984 2.09835 21.4017C2.80161 22.1049 3.75544 22.5 4.75 22.5H22.25C23.2446 22.5 24.1984 22.1049 24.9016 21.4017C25.6049 20.6984 26 19.7446 26 18.75V6.25C26 5.25544 25.6049 4.30161 24.9016 3.59835C24.1984 2.89509 23.2446 2.5 22.25 2.5ZM4.75 5H22.25C22.5815 5 22.8995 5.1317 23.1339 5.36612C23.3683 5.60054 23.5 5.91848 23.5 6.25L13.5 12.35L3.5 6.25C3.5 5.91848 3.6317 5.60054 3.86612 5.36612C4.10054 5.1317 4.41848 5 4.75 5ZM23.5 18.75C23.5 19.0815 23.3683 19.3995 23.1339 19.6339C22.8995 19.8683 22.5815 20 22.25 20H4.75C4.41848 20 4.10054 19.8683 3.86612 19.6339C3.6317 19.3995 3.5 19.0815 3.5 18.75V9.1L12.85 14.8125C13.04 14.9222 13.2556 14.98 13.475 14.98C13.6944 14.98 13.91 14.9222 14.1 14.8125L23.5 9.1V18.75Z" fill="#FF4822"/>
</svg>
