<svg width="20" height="21" viewBox="0 0 20 21" fill="none" xmlns="http://www.w3.org/2000/svg">
<path d="M18 18.5H7.54V13.96C7.54 13.6948 7.43464 13.4404 7.24711 13.2529C7.05957 13.0654 6.80522 12.96 6.54 12.96H2V2.5H12.46V7.04C12.46 7.30522 12.5654 7.55957 12.7529 7.74711C12.9404 7.93464 13.1948 8.04 13.46 8.04H18V18.5Z" fill="#FF4822"/>
<path fill-rule="evenodd" clip-rule="evenodd" d="M19 6.04H14.46V1.5C14.46 1.23478 14.3546 0.98043 14.1671 0.792893C13.9796 0.605357 13.7252 0.5 13.46 0.5H1C0.734784 0.5 0.48043 0.605357 0.292893 0.792893C0.105357 0.98043 0 1.23478 0 1.5V13.96C0 14.2252 0.105357 14.4796 0.292893 14.6671C0.48043 14.8546 0.734784 14.96 1 14.96H5.54V19.5C5.54 19.7652 5.64536 20.0196 5.83289 20.2071C6.02043 20.3946 6.27478 20.5 6.54 20.5H19C19.2652 20.5 19.5196 20.3946 19.7071 20.2071C19.8946 20.0196 20 19.7652 20 19.5V7.04C20 6.77478 19.8946 6.52043 19.7071 6.33289C19.5196 6.14536 19.2652 6.04 19 6.04ZM7.54 18.5H18V8.04H13.46C13.1948 8.04 12.9404 7.93464 12.7529 7.74711C12.5654 7.55957 12.46 7.30522 12.46 7.04V2.5H2V12.96H6.54C6.80522 12.96 7.05957 13.0654 7.24711 13.2529C7.43464 13.4404 7.54 13.6948 7.54 13.96V18.5Z" fill="#FF4822"/>
</svg>
