<svg width="80" height="12" viewBox="0 0 80 12" fill="none" xmlns="http://www.w3.org/2000/svg">
<g clip-path="url(#clip0_580_10538)">
<path d="M6.00011 0.293457L7.85401 4.05026L12 4.65286L8.99994 7.57695L9.70813 11.7062L6.00011 9.75676L2.29187 11.7062L3.00006 7.57695L0 4.65286L4.14599 4.05026L6.00011 0.293457Z" fill="#FEC32A"/>
<path d="M2.42432 11.7165C2.37985 11.7165 2.33539 11.7028 2.29802 11.6755C2.23186 11.6274 2.19878 11.546 2.21274 11.4654L2.87668 7.59522L0.064785 4.85464C0.00636056 4.79751 -0.0146894 4.71223 0.0104417 4.63469C0.0357876 4.55694 0.103019 4.50023 0.183997 4.48842L4.06965 3.92372L5.80757 0.402571C5.84365 0.329111 5.9184 0.282715 6.00002 0.282715C6.08186 0.282715 6.15661 0.329111 6.19248 0.402571L7.93018 3.92372L11.8161 4.48842C11.897 4.50023 11.964 4.55672 11.9896 4.63469C12.0147 4.71223 11.9939 4.79772 11.9353 4.85464L9.12337 7.59565L9.78709 11.4656C9.80084 11.5462 9.76776 11.6276 9.70182 11.6757C9.63566 11.7242 9.54781 11.7305 9.47542 11.692L6.00002 9.86497L2.5242 11.692C2.49284 11.7084 2.45847 11.7165 2.42432 11.7165ZM0.676309 4.85078L3.2573 7.36668C3.30777 7.41587 3.33097 7.48718 3.31894 7.55678L2.70957 11.1091L5.90014 9.43194C5.96265 9.39887 6.03718 9.39887 6.10012 9.43194L9.29027 11.1091L8.68111 7.55678C8.66908 7.48718 8.69228 7.41609 8.74275 7.36668L11.3237 4.85078L7.75705 4.33248C7.68703 4.32238 7.62667 4.27835 7.59531 4.21498L6.00002 0.983164L4.40474 4.2152C4.37338 4.27856 4.31302 4.3226 4.24299 4.33269L0.676309 4.85078Z" fill="#FEC32A"/>
</g>
<g clip-path="url(#clip1_580_10538)">
<path d="M23.0001 0.293457L24.854 4.05026L29 4.65286L25.9999 7.57695L26.7081 11.7062L23.0001 9.75676L19.2919 11.7062L20.0001 7.57695L17 4.65286L21.146 4.05026L23.0001 0.293457Z" fill="#FEC32A"/>
<path d="M19.4243 11.7165C19.3799 11.7165 19.3354 11.7028 19.298 11.6755C19.2319 11.6274 19.1988 11.546 19.2127 11.4654L19.8767 7.59522L17.0648 4.85464C17.0064 4.79751 16.9853 4.71223 17.0104 4.63469C17.0358 4.55694 17.103 4.50023 17.184 4.48842L21.0697 3.92372L22.8076 0.402571C22.8437 0.329111 22.9184 0.282715 23 0.282715C23.0819 0.282715 23.1566 0.329111 23.1925 0.402571L24.9302 3.92372L28.8161 4.48842C28.897 4.50023 28.964 4.55672 28.9896 4.63469C29.0147 4.71223 28.9939 4.79772 28.9353 4.85464L26.1234 7.59565L26.7871 11.4656C26.8008 11.5462 26.7678 11.6276 26.7018 11.6757C26.6357 11.7242 26.5478 11.7305 26.4754 11.692L23 9.86497L19.5242 11.692C19.4928 11.7084 19.4585 11.7165 19.4243 11.7165ZM17.6763 4.85078L20.2573 7.36668C20.3078 7.41587 20.331 7.48718 20.3189 7.55678L19.7096 11.1091L22.9001 9.43194C22.9626 9.39887 23.0372 9.39887 23.1001 9.43194L26.2903 11.1091L25.6811 7.55678C25.6691 7.48718 25.6923 7.41609 25.7428 7.36668L28.3237 4.85078L24.7571 4.33248C24.687 4.32238 24.6267 4.27835 24.5953 4.21498L23 0.983164L21.4047 4.2152C21.3734 4.27856 21.313 4.3226 21.243 4.33269L17.6763 4.85078Z" fill="#FEC32A"/>
</g>
<g clip-path="url(#clip2_580_10538)">
<path d="M40.0001 0.293457L41.854 4.05026L46 4.65286L42.9999 7.57695L43.7081 11.7062L40.0001 9.75676L36.2919 11.7062L37.0001 7.57695L34 4.65286L38.146 4.05026L40.0001 0.293457Z" fill="#FEC32A"/>
<path d="M36.4243 11.7165C36.3799 11.7165 36.3354 11.7028 36.298 11.6755C36.2319 11.6274 36.1988 11.546 36.2127 11.4654L36.8767 7.59522L34.0648 4.85464C34.0064 4.79751 33.9853 4.71223 34.0104 4.63469C34.0358 4.55694 34.103 4.50023 34.184 4.48842L38.0697 3.92372L39.8076 0.402571C39.8437 0.329111 39.9184 0.282715 40 0.282715C40.0819 0.282715 40.1566 0.329111 40.1925 0.402571L41.9302 3.92372L45.8161 4.48842C45.897 4.50023 45.964 4.55672 45.9896 4.63469C46.0147 4.71223 45.9939 4.79772 45.9353 4.85464L43.1234 7.59565L43.7871 11.4656C43.8008 11.5462 43.7678 11.6276 43.7018 11.6757C43.6357 11.7242 43.5478 11.7305 43.4754 11.692L40 9.86497L36.5242 11.692C36.4928 11.7084 36.4585 11.7165 36.4243 11.7165ZM34.6763 4.85078L37.2573 7.36668C37.3078 7.41587 37.331 7.48718 37.3189 7.55678L36.7096 11.1091L39.9001 9.43194C39.9626 9.39887 40.0372 9.39887 40.1001 9.43194L43.2903 11.1091L42.6811 7.55678C42.6691 7.48718 42.6923 7.41609 42.7428 7.36668L45.3237 4.85078L41.7571 4.33248C41.687 4.32238 41.6267 4.27835 41.5953 4.21498L40 0.983164L38.4047 4.2152C38.3734 4.27856 38.313 4.3226 38.243 4.33269L34.6763 4.85078Z" fill="#FEC32A"/>
</g>
<g clip-path="url(#clip3_580_10538)">
<path d="M57.0001 0.293457L58.854 4.05026L63 4.65286L59.9999 7.57695L60.7081 11.7062L57.0001 9.75676L53.2919 11.7062L54.0001 7.57695L51 4.65286L55.146 4.05026L57.0001 0.293457Z" fill="#FEC32A"/>
<path d="M53.4243 11.7165C53.3799 11.7165 53.3354 11.7028 53.298 11.6755C53.2319 11.6274 53.1988 11.546 53.2127 11.4654L53.8767 7.59522L51.0648 4.85464C51.0064 4.79751 50.9853 4.71223 51.0104 4.63469C51.0358 4.55694 51.103 4.50023 51.184 4.48842L55.0697 3.92372L56.8076 0.402571C56.8437 0.329111 56.9184 0.282715 57 0.282715C57.0819 0.282715 57.1566 0.329111 57.1925 0.402571L58.9302 3.92372L62.8161 4.48842C62.897 4.50023 62.964 4.55672 62.9896 4.63469C63.0147 4.71223 62.9939 4.79772 62.9353 4.85464L60.1234 7.59565L60.7871 11.4656C60.8008 11.5462 60.7678 11.6276 60.7018 11.6757C60.6357 11.7242 60.5478 11.7305 60.4754 11.692L57 9.86497L53.5242 11.692C53.4928 11.7084 53.4585 11.7165 53.4243 11.7165ZM51.6763 4.85078L54.2573 7.36668C54.3078 7.41587 54.331 7.48718 54.3189 7.55678L53.7096 11.1091L56.9001 9.43194C56.9626 9.39887 57.0372 9.39887 57.1001 9.43194L60.2903 11.1091L59.6811 7.55678C59.6691 7.48718 59.6923 7.41609 59.7428 7.36668L62.3237 4.85078L58.7571 4.33248C58.687 4.32238 58.6267 4.27835 58.5953 4.21498L57 0.983164L55.4047 4.2152C55.3734 4.27856 55.313 4.3226 55.243 4.33269L51.6763 4.85078Z" fill="#FEC32A"/>
</g>
<g clip-path="url(#clip4_580_10538)">
<path d="M70.4243 11.7165C70.3799 11.7165 70.3354 11.7028 70.298 11.6755C70.2319 11.6274 70.1988 11.546 70.2127 11.4654L70.8767 7.59523L68.0648 4.85465C68.0064 4.79751 67.9853 4.71224 68.0104 4.63469C68.0358 4.55694 68.103 4.50023 68.184 4.48842L72.0697 3.92372L73.8076 0.402571C73.8437 0.329111 73.9184 0.282715 74 0.282715C74.0819 0.282715 74.1566 0.329111 74.1925 0.402571L75.9302 3.92372L79.8161 4.48842C79.897 4.50023 79.964 4.55672 79.9896 4.63469C80.0147 4.71224 79.9939 4.79772 79.9353 4.85465L77.1234 7.59565L77.7871 11.4656C77.8008 11.5462 77.7678 11.6276 77.7018 11.6757C77.6357 11.7242 77.5478 11.7305 77.4754 11.692L74 9.86497L70.5242 11.692C70.4928 11.7084 70.4585 11.7165 70.4243 11.7165ZM68.6763 4.85078L71.2573 7.36668C71.3078 7.41587 71.331 7.48718 71.3189 7.55678L70.7096 11.1091L73.9001 9.43194C73.9627 9.39887 74.0372 9.39887 74.1001 9.43194L77.2903 11.1091L76.6811 7.55678C76.6691 7.48718 76.6923 7.41609 76.7428 7.36668L79.3237 4.85078L75.7571 4.33248C75.687 4.32238 75.6267 4.27835 75.5953 4.21498L74 0.983164L72.4047 4.2152C72.3734 4.27856 72.313 4.3226 72.243 4.33269L68.6763 4.85078Z" fill="#FEC32A"/>
</g>
<g clip-path="url(#clip5_580_10538)">
<path d="M74.0001 0.293457L75.854 4.05026L80 4.65286L76.9999 7.57695L77.7081 11.7062L74.0001 9.75676L70.2919 11.7062L71.0001 7.57695L68 4.65286L72.146 4.05026L74.0001 0.293457Z" fill="#FEC32A"/>
<path d="M70.4243 11.7165C70.3799 11.7165 70.3354 11.7028 70.298 11.6755C70.2319 11.6274 70.1988 11.546 70.2127 11.4654L70.8767 7.59522L68.0648 4.85464C68.0064 4.79751 67.9853 4.71223 68.0104 4.63469C68.0358 4.55694 68.103 4.50023 68.184 4.48842L72.0697 3.92372L73.8076 0.402571C73.8437 0.329111 73.9184 0.282715 74 0.282715C74.0819 0.282715 74.1566 0.329111 74.1925 0.402571L75.9302 3.92372L79.8161 4.48842C79.897 4.50023 79.964 4.55672 79.9896 4.63469C80.0147 4.71223 79.9939 4.79772 79.9353 4.85464L77.1234 7.59565L77.7871 11.4656C77.8008 11.5462 77.7678 11.6276 77.7018 11.6757C77.6357 11.7242 77.5478 11.7305 77.4754 11.692L74 9.86497L70.5242 11.692C70.4928 11.7084 70.4585 11.7165 70.4243 11.7165ZM68.6763 4.85078L71.2573 7.36668C71.3078 7.41587 71.331 7.48718 71.3189 7.55678L70.7096 11.1091L73.9001 9.43194C73.9626 9.39887 74.0372 9.39887 74.1001 9.43194L77.2903 11.1091L76.6811 7.55678C76.6691 7.48718 76.6923 7.41609 76.7428 7.36668L79.3237 4.85078L75.7571 4.33248C75.687 4.32238 75.6267 4.27835 75.5953 4.21498L74 0.983164L72.4047 4.2152C72.3734 4.27856 72.313 4.3226 72.243 4.33269L68.6763 4.85078Z" fill="#FEC32A"/>
</g>
<defs>
<clipPath id="clip0_580_10538">
<rect width="12" height="12" fill="white"/>
</clipPath>
<clipPath id="clip1_580_10538">
<rect width="12" height="12" fill="white" transform="translate(17)"/>
</clipPath>
<clipPath id="clip2_580_10538">
<rect width="12" height="12" fill="white" transform="translate(34)"/>
</clipPath>
<clipPath id="clip3_580_10538">
<rect width="12" height="12" fill="white" transform="translate(51)"/>
</clipPath>
<clipPath id="clip4_580_10538">
<rect width="12" height="12" fill="white" transform="translate(68)"/>
</clipPath>
<clipPath id="clip5_580_10538">
<rect width="12" height="12" fill="white" transform="translate(68)"/>
</clipPath>
</defs>
</svg>
