<svg width="46" height="39" viewBox="0 0 46 39" fill="none" xmlns="http://www.w3.org/2000/svg">
<path d="M0.754883 20.5151V30.4889C0.754883 31.018 0.971291 31.5253 1.3565 31.8994C1.74171 32.2735 2.26417 32.4837 2.80894 32.4837H4.86299C4.86299 34.0708 5.51222 35.5929 6.66785 36.7152C7.82348 37.8375 9.39084 38.468 11.0252 38.468C12.6595 38.468 14.2268 37.8375 15.3825 36.7152C16.5381 35.5929 17.1873 34.0708 17.1873 32.4837H29.5116C29.5116 34.0708 30.1609 35.5929 31.3165 36.7152C32.4721 37.8375 34.0395 38.468 35.6738 38.468C37.3081 38.468 38.8755 37.8375 40.0311 36.7152C41.1867 35.5929 41.836 34.0708 41.836 32.4837H43.89C44.4348 32.4837 44.9572 32.2735 45.3424 31.8994C45.7277 31.5253 45.9441 31.018 45.9441 30.4889V6.55169C45.9441 4.96455 45.2948 3.44242 44.1392 2.32015C42.9836 1.19787 41.4162 0.567383 39.7819 0.567383H21.2954C19.6611 0.567383 18.0937 1.19787 16.9381 2.32015C15.7825 3.44242 15.1333 4.96455 15.1333 6.55169V10.5412H11.0252C10.0685 10.5412 9.125 10.7575 8.26935 11.173C7.4137 11.5885 6.66941 12.1917 6.09542 12.9349L1.16569 19.3182C1.10562 19.4049 1.05729 19.4988 1.02191 19.5975L0.898667 19.8169C0.808013 20.0394 0.759309 20.2759 0.754883 20.5151V20.5151ZM33.6197 32.4837C33.6197 32.0892 33.7402 31.7035 33.9659 31.3754C34.1916 31.0474 34.5124 30.7917 34.8877 30.6408C35.2631 30.4898 35.6761 30.4503 36.0745 30.5272C36.473 30.6042 36.839 30.7942 37.1262 31.0732C37.4135 31.3521 37.6091 31.7076 37.6884 32.0945C37.7676 32.4815 37.727 32.8825 37.5715 33.247C37.416 33.6115 37.1528 33.9231 36.815 34.1423C36.4772 34.3615 36.0801 34.4784 35.6738 34.4784C35.129 34.4784 34.6066 34.2683 34.2214 33.8942C33.8362 33.5201 33.6197 33.0127 33.6197 32.4837ZM19.2414 6.55169C19.2414 6.02264 19.4578 5.51527 19.843 5.14117C20.2282 4.76708 20.7507 4.55692 21.2954 4.55692H39.7819C40.3267 4.55692 40.8491 4.76708 41.2343 5.14117C41.6196 5.51527 41.836 6.02264 41.836 6.55169V28.4941H40.2338C39.6562 27.8771 38.9522 27.384 38.167 27.0466C37.3817 26.7092 36.5325 26.5349 35.6738 26.5349C34.8151 26.5349 33.9659 26.7092 33.1806 27.0466C32.3954 27.384 31.6914 27.8771 31.1138 28.4941H19.2414V6.55169ZM15.1333 18.5203H6.91704L9.38191 15.3287C9.57324 15.0809 9.82133 14.8798 10.1066 14.7414C10.3918 14.6029 10.7063 14.5308 11.0252 14.5308H15.1333V18.5203ZM8.9711 32.4837C8.9711 32.0892 9.09157 31.7035 9.31727 31.3754C9.54297 31.0474 9.86377 30.7917 10.2391 30.6408C10.6144 30.4898 11.0274 30.4503 11.4259 30.5272C11.8243 30.6042 12.1903 30.7942 12.4776 31.0732C12.7649 31.3521 12.9605 31.7076 13.0397 32.0945C13.119 32.4815 13.0783 32.8825 12.9229 33.247C12.7674 33.6115 12.5041 33.9231 12.1663 34.1423C11.8285 34.3615 11.4314 34.4784 11.0252 34.4784C10.4804 34.4784 9.95793 34.2683 9.57272 33.8942C9.18751 33.5201 8.9711 33.0127 8.9711 32.4837ZM4.86299 22.5098H15.1333V28.0553C13.921 27.0032 12.3298 26.4589 10.7061 26.5411C9.08253 26.6233 7.55816 27.3253 6.46515 28.4941H4.86299V22.5098Z" fill="white"/>
</svg>
