<svg width="39" height="39" viewBox="0 0 39 39" fill="none" xmlns="http://www.w3.org/2000/svg">
<path fill-rule="evenodd" clip-rule="evenodd" d="M14.1191 24.8794L24.6923 14.3062L14.1191 24.8794Z" fill="white"/>
<path d="M14.1191 24.8794L24.6923 14.3062" stroke="white" stroke-width="3" stroke-linecap="round" stroke-linejoin="round"/>
<mask id="path-3-inside-1_949_1675" fill="white">
<path fill-rule="evenodd" clip-rule="evenodd" d="M4.58329 9.42349C4.58329 6.85424 6.66707 4.77045 9.23427 4.77045H11.351C12.577 4.77045 13.7556 4.28499 14.6278 3.41898L16.1068 1.9379C17.9191 0.11742 20.8648 0.109192 22.6853 1.92145L22.7038 1.9379L24.1849 3.41898C25.055 4.28499 26.2337 4.77045 27.4617 4.77045H29.5764C32.1456 4.77045 34.2294 6.85424 34.2294 9.42349V11.5361C34.2294 12.7662 34.7149 13.9428 35.5809 14.815L37.0619 16.2961C38.8824 18.1083 38.8927 21.052 37.0805 22.8745L37.0619 22.893L35.5809 24.3741C34.7149 25.2421 34.2294 26.4229 34.2294 27.6489V29.7656C34.2294 32.3348 32.1456 34.4166 29.5764 34.4166H27.4617C26.2337 34.4166 25.055 34.9041 24.1849 35.7701L22.7038 37.2491C20.8936 39.0717 17.9479 39.0799 16.1254 37.2676C16.1192 37.2615 16.113 37.2553 16.1068 37.2491L14.6278 35.7701C13.7556 34.9041 12.577 34.4166 11.351 34.4166H9.23427C6.66707 34.4166 4.58329 32.3348 4.58329 29.7656V27.6489C4.58329 26.4229 4.09577 25.2421 3.22976 24.3741L1.75074 22.893C-0.071799 21.0807 -0.0800272 18.1351 1.73223 16.3146L1.75074 16.2961L3.22976 14.815C4.09577 13.9428 4.58329 12.7662 4.58329 11.5361V9.42349Z"/>
</mask>
<path fill-rule="evenodd" clip-rule="evenodd" d="M4.58329 9.42349C4.58329 6.85424 6.66707 4.77045 9.23427 4.77045H11.351C12.577 4.77045 13.7556 4.28499 14.6278 3.41898L16.1068 1.9379C17.9191 0.11742 20.8648 0.109192 22.6853 1.92145L22.7038 1.9379L24.1849 3.41898C25.055 4.28499 26.2337 4.77045 27.4617 4.77045H29.5764C32.1456 4.77045 34.2294 6.85424 34.2294 9.42349V11.5361C34.2294 12.7662 34.7149 13.9428 35.5809 14.815L37.0619 16.2961C38.8824 18.1083 38.8927 21.052 37.0805 22.8745L37.0619 22.893L35.5809 24.3741C34.7149 25.2421 34.2294 26.4229 34.2294 27.6489V29.7656C34.2294 32.3348 32.1456 34.4166 29.5764 34.4166H27.4617C26.2337 34.4166 25.055 34.9041 24.1849 35.7701L22.7038 37.2491C20.8936 39.0717 17.9479 39.0799 16.1254 37.2676C16.1192 37.2615 16.113 37.2553 16.1068 37.2491L14.6278 35.7701C13.7556 34.9041 12.577 34.4166 11.351 34.4166H9.23427C6.66707 34.4166 4.58329 32.3348 4.58329 29.7656V27.6489C4.58329 26.4229 4.09577 25.2421 3.22976 24.3741L1.75074 22.893C-0.071799 21.0807 -0.0800272 18.1351 1.73223 16.3146L1.75074 16.2961L3.22976 14.815C4.09577 13.9428 4.58329 12.7662 4.58329 11.5361V9.42349Z" fill="#FF4822"/>
<path d="M1.58329 9.42349C1.58329 11.0803 2.92644 12.4235 4.58329 12.4235C6.24014 12.4235 7.58329 11.0803 7.58329 9.42349H1.58329ZM14.6278 3.41898L16.7416 5.54783L16.7506 5.53882L14.6278 3.41898ZM16.1068 1.9379L18.2296 4.05775L18.233 4.05441L16.1068 1.9379ZM22.6853 1.92145L20.5688 4.04757C20.6088 4.08742 20.65 4.12614 20.6922 4.16367L22.6853 1.92145ZM22.7038 1.9379L24.8251 -0.183417C24.7836 -0.224963 24.7408 -0.265279 24.6969 -0.304314L22.7038 1.9379ZM24.1849 3.41898L22.0635 5.5403L22.0686 5.54532L24.1849 3.41898ZM35.5809 14.815L33.452 16.9288L33.4596 16.9363L35.5809 14.815ZM37.0619 16.2961L34.9406 18.4174L34.9454 18.4222L37.0619 16.2961ZM37.0805 22.8745L39.2017 24.996L39.2078 24.9898L37.0805 22.8745ZM37.0619 22.893L34.9408 20.7716L34.9406 20.7717L37.0619 22.893ZM35.5809 24.3741L33.4596 22.2528L33.457 22.2553L35.5809 24.3741ZM24.1849 35.7701L22.0686 33.6438L22.065 33.6473L24.1849 35.7701ZM22.7038 37.2491L20.5839 35.1263L20.5753 35.135L22.7038 37.2491ZM16.1254 37.2676L14.004 39.389L14.0101 39.3949L16.1254 37.2676ZM16.1068 37.2491L13.9855 39.3704L13.9855 39.3704L16.1068 37.2491ZM14.6278 35.7701L16.7492 33.6488L16.7416 33.6413L14.6278 35.7701ZM3.22976 24.3741L5.35359 22.2553L5.35255 22.2542L3.22976 24.3741ZM1.75074 22.893L3.87355 20.7731L3.86605 20.7657L1.75074 22.893ZM1.73223 16.3146L-0.389073 14.1932L-0.393892 14.1981L1.73223 16.3146ZM1.75074 16.2961L3.87204 18.4174L3.87354 18.4159L1.75074 16.2961ZM3.22976 14.815L5.35256 16.9348L5.35859 16.9288L3.22976 14.815ZM7.58329 9.42349C7.58329 7.76663 6.24014 6.42349 4.58329 6.42349C2.92644 6.42349 1.58329 7.76663 1.58329 9.42349H7.58329ZM7.58329 9.42349C7.58329 8.51023 8.32479 7.77045 9.23427 7.77045V1.77045C5.00936 1.77045 1.58329 5.19825 1.58329 9.42349H7.58329ZM9.23427 7.77045H11.351V1.77045H9.23427V7.77045ZM11.351 7.77045C13.3695 7.77045 15.3078 6.97146 16.7416 5.54781L12.5141 1.29014C12.2035 1.59852 11.7845 1.77045 11.351 1.77045V7.77045ZM16.7506 5.53882L18.2296 4.05775L13.9841 -0.181942L12.505 1.29913L16.7506 5.53882ZM18.233 4.05441C18.8776 3.40684 19.9238 3.40553 20.5688 4.04757L24.8018 -0.204672C21.8058 -3.18715 16.9606 -3.172 13.9807 -0.178606L18.233 4.05441ZM20.6922 4.16367L20.7107 4.18012L24.6969 -0.304314L24.6784 -0.32077L20.6922 4.16367ZM20.5825 4.05922L22.0635 5.5403L26.3062 1.29765L24.8251 -0.183417L20.5825 4.05922ZM22.0686 5.54532C23.5023 6.97229 25.4425 7.77045 27.4617 7.77045V1.77045C27.0248 1.77045 26.6077 1.59769 26.3011 1.29263L22.0686 5.54532ZM27.4617 7.77045H29.5764V1.77045H27.4617V7.77045ZM29.5764 7.77045C30.4888 7.77045 31.2294 8.51109 31.2294 9.42349H37.2294C37.2294 5.19738 33.8025 1.77045 29.5764 1.77045V7.77045ZM31.2294 9.42349V11.5361H37.2294V9.42349H31.2294ZM31.2294 11.5361C31.2294 13.5587 32.0284 15.495 33.452 16.9288L37.7097 12.7012C37.4013 12.3906 37.2294 11.9737 37.2294 11.5361H31.2294ZM33.4596 16.9363L34.9406 18.4174L39.1833 14.1748L37.7022 12.6937L33.4596 16.9363ZM34.9454 18.4222C35.5941 19.0679 35.5957 20.113 34.9531 20.7592L39.2078 24.9898C42.1897 21.9909 42.1708 17.1487 39.1785 14.1699L34.9454 18.4222ZM34.9593 20.753L34.9408 20.7716L39.1831 25.0145L39.2017 24.9959L34.9593 20.753ZM34.9406 20.7717L33.4596 22.2528L37.7022 26.4954L39.1833 25.0143L34.9406 20.7717ZM33.457 22.2553C32.0267 23.689 31.2294 25.6331 31.2294 27.6489H37.2294C37.2294 27.2127 37.403 26.7953 37.7047 26.4929L33.457 22.2553ZM31.2294 27.6489V29.7656H37.2294V27.6489H31.2294ZM31.2294 29.7656C31.2294 30.6763 30.4905 31.4166 29.5764 31.4166V37.4166C33.8007 37.4166 37.2294 33.9934 37.2294 29.7656H31.2294ZM29.5764 31.4166H27.4617V37.4166H29.5764V31.4166ZM27.4617 31.4166C25.4391 31.4166 23.4999 32.2192 22.0686 33.6438L26.3011 37.8964C26.6101 37.589 27.0283 37.4166 27.4617 37.4166V31.4166ZM22.065 33.6473L20.5839 35.1263L24.8236 39.3719L26.3047 37.8929L22.065 33.6473ZM20.5753 35.135C19.9343 35.7803 18.8891 35.7851 18.2407 35.1403L14.0101 39.3949C17.0067 42.3747 21.8528 42.363 24.8323 39.3632L20.5753 35.135ZM18.2467 35.1463C18.2434 35.1431 18.2402 35.1398 18.2371 35.1368C18.234 35.1336 18.2311 35.1307 18.2282 35.1278L13.9855 39.3704C13.9888 39.3737 13.992 39.3769 13.9951 39.38C13.9982 39.3831 14.0011 39.386 14.004 39.3889L18.2467 35.1463ZM18.2282 35.1278L16.7492 33.6488L12.5065 37.8914L13.9855 39.3704L18.2282 35.1278ZM16.7416 33.6413C15.3102 32.22 13.3729 31.4166 11.351 31.4166V37.4166C11.7811 37.4166 12.201 37.5881 12.5141 37.8989L16.7416 33.6413ZM11.351 31.4166H9.23427V37.4166H11.351V31.4166ZM9.23427 31.4166C8.32306 31.4166 7.58329 30.6771 7.58329 29.7656H1.58329C1.58329 33.9926 5.01109 37.4166 9.23427 37.4166V31.4166ZM7.58329 29.7656V27.6489H1.58329V29.7656H7.58329ZM7.58329 27.6489C7.58329 25.6296 6.7815 23.6866 5.35359 22.2553L1.10592 26.4929C1.41004 26.7977 1.58329 27.2161 1.58329 27.6489H7.58329ZM5.35255 22.2542L3.87354 20.7732L-0.372053 25.0128L1.10696 26.4939L5.35255 22.2542ZM3.86605 20.7657C3.21782 20.1211 3.21652 19.0758 3.85835 18.4311L-0.393892 14.1981C-3.37657 17.1943 -3.36142 22.0404 -0.364568 25.0203L3.86605 20.7657ZM3.85352 18.4359L3.87204 18.4174L-0.370554 14.1747L-0.389068 14.1932L3.85352 18.4359ZM3.87354 18.4159L5.35255 16.9348L1.10696 12.6952L-0.372053 14.1762L3.87354 18.4159ZM5.35859 16.9288C6.77983 15.4974 7.58329 13.5621 7.58329 11.5361H1.58329C1.58329 11.9703 1.41171 12.3882 1.10092 12.7012L5.35859 16.9288ZM7.58329 11.5361V9.42349H1.58329V11.5361H7.58329Z" fill="white" mask="url(#path-3-inside-1_949_1675)"/>
<path d="M24.6854 26.4283C24.274 26.4283 23.8831 26.2637 23.5951 25.9757C23.4511 25.8317 23.3483 25.6466 23.266 25.4615C23.1837 25.2763 23.1426 25.0933 23.1426 24.8855C23.1426 24.6798 23.1837 24.4741 23.266 24.289C23.3483 24.1038 23.4511 23.9393 23.5951 23.7953C24.1711 23.2193 25.1996 23.2193 25.7756 23.7953C25.9196 23.9393 26.043 24.1038 26.1253 24.289C26.187 24.4741 26.2281 24.6798 26.2281 24.8855C26.2281 25.0933 26.187 25.2763 26.1253 25.4615C26.043 25.6466 25.9196 25.8317 25.7756 25.9757C25.4876 26.2637 25.0968 26.4283 24.6854 26.4283Z" fill="white"/>
<path d="M14.1121 15.8561C13.9064 15.8561 13.7213 15.8129 13.5361 15.7306C13.351 15.6483 13.1659 15.5475 13.0219 15.4035C12.8779 15.239 12.775 15.0744 12.6928 14.8893C12.6105 14.7021 12.5693 14.519 12.5693 14.3133C12.5693 14.1055 12.6105 13.9019 12.6928 13.7168C12.775 13.5316 12.8779 13.3465 13.0219 13.2231C13.6184 12.645 14.6264 12.645 15.2024 13.2231C15.4903 13.509 15.6549 13.9019 15.6549 14.3133C15.6549 14.519 15.6343 14.7021 15.552 14.8893C15.4698 15.0744 15.3463 15.239 15.2024 15.4035C15.0584 15.5475 14.8938 15.6483 14.7087 15.7306C14.5235 15.8129 14.3178 15.8561 14.1121 15.8561Z" fill="white"/>
</svg>
