<svg width="44" height="44" viewBox="0 0 44 44" fill="none" xmlns="http://www.w3.org/2000/svg">
<path d="M16.1191 27.8794L26.6923 17.3062" stroke="#003767" stroke-width="3" stroke-linecap="round" stroke-linejoin="round"/>
<mask id="path-2-inside-1_683_1672" fill="white">
<path fill-rule="evenodd" clip-rule="evenodd" d="M6.58329 12.4235C6.58329 9.85424 8.66707 7.77045 11.2343 7.77045H13.351C14.577 7.77045 15.7556 7.28499 16.6278 6.41898L18.1068 4.9379C19.9191 3.11742 22.8648 3.10919 24.6853 4.92145L24.7038 4.9379L26.1849 6.41898C27.055 7.28499 28.2337 7.77045 29.4617 7.77045H31.5764C34.1456 7.77045 36.2294 9.85424 36.2294 12.4235V14.5361C36.2294 15.7662 36.7149 16.9428 37.5809 17.815L39.0619 19.2961C40.8824 21.1083 40.8927 24.052 39.0805 25.8745L39.0619 25.893L37.5809 27.3741C36.7149 28.2421 36.2294 29.4229 36.2294 30.6489V32.7656C36.2294 35.3348 34.1456 37.4166 31.5764 37.4166H29.4617C28.2337 37.4166 27.055 37.9041 26.1849 38.7701L24.7038 40.2491C22.8936 42.0717 19.9479 42.0799 18.1254 40.2676C18.1192 40.2615 18.113 40.2553 18.1068 40.2491L16.6278 38.7701C15.7556 37.9041 14.577 37.4166 13.351 37.4166H11.2343C8.66707 37.4166 6.58329 35.3348 6.58329 32.7656V30.6489C6.58329 29.4229 6.09577 28.2421 5.22976 27.3741L3.75074 25.893C1.9282 24.0807 1.91997 21.1351 3.73223 19.3146L3.75074 19.2961L5.22976 17.815C6.09577 16.9428 6.58329 15.7662 6.58329 14.5361V12.4235Z"/>
</mask>
<path d="M3.58329 12.4235C3.58329 14.0803 4.92644 15.4235 6.58329 15.4235C8.24014 15.4235 9.58329 14.0803 9.58329 12.4235H3.58329ZM16.6278 6.41898L18.7416 8.54783L18.7506 8.53882L16.6278 6.41898ZM18.1068 4.9379L20.2296 7.05775L20.233 7.05441L18.1068 4.9379ZM24.6853 4.92145L22.5688 7.04757C22.6088 7.08742 22.65 7.12614 22.6922 7.16367L24.6853 4.92145ZM24.7038 4.9379L26.8251 2.81658C26.7836 2.77504 26.7408 2.73472 26.6969 2.69569L24.7038 4.9379ZM26.1849 6.41898L24.0635 8.5403L24.0686 8.54532L26.1849 6.41898ZM37.5809 17.815L35.452 19.9288L35.4596 19.9363L37.5809 17.815ZM39.0619 19.2961L36.9406 21.4174L36.9454 21.4222L39.0619 19.2961ZM39.0805 25.8745L41.2017 27.996L41.2078 27.9898L39.0805 25.8745ZM39.0619 25.893L36.9408 23.7716L36.9406 23.7717L39.0619 25.893ZM37.5809 27.3741L35.4596 25.2528L35.457 25.2553L37.5809 27.3741ZM26.1849 38.7701L24.0686 36.6438L24.065 36.6473L26.1849 38.7701ZM24.7038 40.2491L22.5839 38.1263L22.5753 38.135L24.7038 40.2491ZM18.1254 40.2676L16.004 42.389L16.0101 42.3949L18.1254 40.2676ZM18.1068 40.2491L15.9855 42.3704L15.9855 42.3704L18.1068 40.2491ZM16.6278 38.7701L18.7492 36.6488L18.7416 36.6413L16.6278 38.7701ZM5.22976 27.3741L7.35359 25.2553L7.35255 25.2542L5.22976 27.3741ZM3.75074 25.893L5.87355 23.7731L5.86605 23.7657L3.75074 25.893ZM3.73223 19.3146L1.61093 17.1932L1.60611 17.1981L3.73223 19.3146ZM3.75074 19.2961L5.87204 21.4174L5.87354 21.4159L3.75074 19.2961ZM5.22976 17.815L7.35256 19.9348L7.35859 19.9288L5.22976 17.815ZM9.58329 12.4235C9.58329 10.7666 8.24014 9.42349 6.58329 9.42349C4.92644 9.42349 3.58329 10.7666 3.58329 12.4235H9.58329ZM9.58329 12.4235C9.58329 11.5102 10.3248 10.7705 11.2343 10.7705V4.77045C7.00936 4.77045 3.58329 8.19825 3.58329 12.4235H9.58329ZM11.2343 10.7705H13.351V4.77045H11.2343V10.7705ZM13.351 10.7705C15.3695 10.7705 17.3078 9.97146 18.7416 8.54781L14.5141 4.29014C14.2035 4.59852 13.7845 4.77045 13.351 4.77045V10.7705ZM18.7506 8.53882L20.2296 7.05775L15.9841 2.81806L14.505 4.29913L18.7506 8.53882ZM20.233 7.05441C20.8776 6.40684 21.9238 6.40553 22.5688 7.04757L26.8018 2.79533C23.8058 -0.187148 18.9606 -0.172003 15.9807 2.82139L20.233 7.05441ZM22.6922 7.16367L22.7107 7.18012L26.6969 2.69569L26.6784 2.67923L22.6922 7.16367ZM22.5825 7.05922L24.0635 8.5403L28.3062 4.29765L26.8251 2.81658L22.5825 7.05922ZM24.0686 8.54532C25.5023 9.97229 27.4425 10.7705 29.4617 10.7705V4.77045C29.0248 4.77045 28.6077 4.59769 28.3011 4.29263L24.0686 8.54532ZM29.4617 10.7705H31.5764V4.77045H29.4617V10.7705ZM31.5764 10.7705C32.4888 10.7705 33.2294 11.5111 33.2294 12.4235H39.2294C39.2294 8.19738 35.8025 4.77045 31.5764 4.77045V10.7705ZM33.2294 12.4235V14.5361H39.2294V12.4235H33.2294ZM33.2294 14.5361C33.2294 16.5587 34.0284 18.495 35.452 19.9288L39.7097 15.7012C39.4013 15.3906 39.2294 14.9737 39.2294 14.5361H33.2294ZM35.4596 19.9363L36.9406 21.4174L41.1833 17.1748L39.7022 15.6937L35.4596 19.9363ZM36.9454 21.4222C37.5941 22.0679 37.5957 23.113 36.9531 23.7592L41.2078 27.9898C44.1897 24.9909 44.1708 20.1487 41.1785 17.1699L36.9454 21.4222ZM36.9593 23.753L36.9408 23.7716L41.1831 28.0145L41.2017 27.9959L36.9593 23.753ZM36.9406 23.7717L35.4596 25.2528L39.7022 29.4954L41.1833 28.0143L36.9406 23.7717ZM35.457 25.2553C34.0267 26.689 33.2294 28.6331 33.2294 30.6489H39.2294C39.2294 30.2127 39.403 29.7953 39.7047 29.4929L35.457 25.2553ZM33.2294 30.6489V32.7656H39.2294V30.6489H33.2294ZM33.2294 32.7656C33.2294 33.6763 32.4905 34.4166 31.5764 34.4166V40.4166C35.8007 40.4166 39.2294 36.9934 39.2294 32.7656H33.2294ZM31.5764 34.4166H29.4617V40.4166H31.5764V34.4166ZM29.4617 34.4166C27.4391 34.4166 25.4999 35.2192 24.0686 36.6438L28.3011 40.8964C28.6101 40.589 29.0283 40.4166 29.4617 40.4166V34.4166ZM24.065 36.6473L22.5839 38.1263L26.8236 42.3719L28.3047 40.8929L24.065 36.6473ZM22.5753 38.135C21.9343 38.7803 20.8891 38.7851 20.2407 38.1403L16.0101 42.3949C19.0067 45.3747 23.8528 45.363 26.8323 42.3632L22.5753 38.135ZM20.2467 38.1463C20.2434 38.1431 20.2402 38.1398 20.2371 38.1368C20.234 38.1336 20.2311 38.1307 20.2282 38.1278L15.9855 42.3704C15.9888 42.3737 15.992 42.3769 15.9951 42.38C15.9982 42.3831 16.0011 42.386 16.004 42.3889L20.2467 38.1463ZM20.2282 38.1278L18.7492 36.6488L14.5065 40.8914L15.9855 42.3704L20.2282 38.1278ZM18.7416 36.6413C17.3102 35.22 15.3729 34.4166 13.351 34.4166V40.4166C13.7811 40.4166 14.201 40.5881 14.5141 40.8989L18.7416 36.6413ZM13.351 34.4166H11.2343V40.4166H13.351V34.4166ZM11.2343 34.4166C10.3231 34.4166 9.58329 33.6771 9.58329 32.7656H3.58329C3.58329 36.9926 7.01109 40.4166 11.2343 40.4166V34.4166ZM9.58329 32.7656V30.6489H3.58329V32.7656H9.58329ZM9.58329 30.6489C9.58329 28.6296 8.7815 26.6866 7.35359 25.2553L3.10592 29.4929C3.41004 29.7977 3.58329 30.2161 3.58329 30.6489H9.58329ZM7.35255 25.2542L5.87354 23.7732L1.62795 28.0128L3.10696 29.4939L7.35255 25.2542ZM5.86605 23.7657C5.21782 23.1211 5.21652 22.0758 5.85835 21.4311L1.60611 17.1981C-1.37657 20.1943 -1.36142 25.0404 1.63543 28.0203L5.86605 23.7657ZM5.85352 21.4359L5.87204 21.4174L1.62945 17.1747L1.61093 17.1932L5.85352 21.4359ZM5.87354 21.4159L7.35255 19.9348L3.10696 15.6952L1.62795 17.1762L5.87354 21.4159ZM7.35859 19.9288C8.77983 18.4974 9.58329 16.5621 9.58329 14.5361H3.58329C3.58329 14.9703 3.41171 15.3882 3.10092 15.7012L7.35859 19.9288ZM9.58329 14.5361V12.4235H3.58329V14.5361H9.58329Z" fill="#003767" mask="url(#path-2-inside-1_683_1672)"/>
<path d="M26.6854 29.4283C26.274 29.4283 25.8831 29.2637 25.5951 28.9757C25.4511 28.8317 25.3483 28.6466 25.266 28.4615C25.1837 28.2763 25.1426 28.0933 25.1426 27.8855C25.1426 27.6798 25.1837 27.4741 25.266 27.289C25.3483 27.1038 25.4511 26.9393 25.5951 26.7953C26.1711 26.2193 27.1996 26.2193 27.7756 26.7953C27.9196 26.9393 28.043 27.1038 28.1253 27.289C28.187 27.4741 28.2281 27.6798 28.2281 27.8855C28.2281 28.0933 28.187 28.2763 28.1253 28.4615C28.043 28.6466 27.9196 28.8317 27.7756 28.9757C27.4876 29.2637 27.0968 29.4283 26.6854 29.4283Z" fill="#003767"/>
<path d="M16.1121 18.8561C15.9064 18.8561 15.7213 18.8129 15.5361 18.7306C15.351 18.6483 15.1659 18.5475 15.0219 18.4035C14.8779 18.239 14.775 18.0744 14.6928 17.8893C14.6105 17.7021 14.5693 17.519 14.5693 17.3133C14.5693 17.1055 14.6105 16.9019 14.6928 16.7168C14.775 16.5316 14.8779 16.3465 15.0219 16.2231C15.6184 15.645 16.6264 15.645 17.2024 16.2231C17.4903 16.509 17.6549 16.9019 17.6549 17.3133C17.6549 17.519 17.6343 17.7021 17.552 17.8893C17.4698 18.0744 17.3463 18.239 17.2024 18.4035C17.0584 18.5475 16.8938 18.6483 16.7087 18.7306C16.5235 18.8129 16.3178 18.8561 16.1121 18.8561Z" fill="#003767"/>
</svg>
