<svg width="110" height="110" viewBox="0 0 110 110" fill="none" xmlns="http://www.w3.org/2000/svg">
<path fill-rule="evenodd" clip-rule="evenodd" d="M54.8353 17.8676C46.5279 27.6955 39.5782 36.1402 39.3915 36.6345C39.1958 37.1518 41.1928 38.6955 44.0941 40.2689C46.867 41.774 49.8878 43.7064 50.8071 44.5634C54.0549 47.5928 53.9183 52.273 50.4904 55.4348C48.1896 57.5568 45.165 57.7411 40.0136 56.0725C38.048 55.4355 35.5163 54.6172 34.3864 54.253C33.2573 53.8889 32.3327 53.6904 32.3327 53.813C32.3327 54.146 53.8518 72.0946 54.2513 72.0946C54.8152 72.0946 96.5576 22.414 96.5576 21.7428C96.5576 20.9862 71.4897 0 70.5861 0C70.2299 0 63.142 8.04041 54.8353 17.8676ZM22.2509 19.8089C18.965 20.8093 14.9323 21.8714 13.2893 22.1687L10.3021 22.7083L10.0953 33.6518C9.98174 39.6699 10.1498 44.5909 10.4687 44.5857C10.7875 44.5812 12.8972 44.0832 15.1563 43.4797C17.4154 42.8762 19.3556 42.3782 19.4669 42.3738C19.5789 42.3686 21.0911 43.6641 22.8275 45.2516C25.38 47.5861 27.8153 48.7382 35.5432 51.2689C45.9118 54.6648 48.3359 54.7272 49.5181 51.6316C50.7272 48.4669 49.1462 46.7032 41.2129 42.3649C37.1018 40.1166 33.1841 37.672 32.5067 36.9325C30.754 35.0194 32.152 33.1665 35.6986 32.7027C38.1496 32.3816 39.2279 31.518 43.587 26.3851C46.3644 23.1149 48.5622 20.3649 48.4711 20.2734C48.3792 20.182 45.8655 19.5971 42.8835 18.9728C35.4237 17.4112 29.3082 17.6587 22.2509 19.8089ZM0.495129 26.5709C0.767711 30.1482 1.37187 36.8545 1.83862 41.4745L2.68699 49.8746L4.62792 49.6501L6.56811 49.4257L6.77049 34.7466L6.97288 20.0676H3.48681H0L0.495129 26.5709ZM65.7491 25.6701C70.9827 27.8463 73.5315 31.5105 73.5315 36.8574C73.5315 44.9291 63.8201 49.7921 56.9697 45.152C52.8406 42.3552 51.3762 39.7769 51.3762 35.3041C51.3762 30.6967 52.9519 28.0582 56.9898 25.9028C60.1279 24.2282 62.151 24.174 65.7491 25.6701ZM58.8367 29.7416C58.5783 30.1571 58.0399 30.2961 57.6396 30.0493C56.594 29.4064 54.6479 31.2236 55.3051 32.2293C55.6083 32.6938 55.8913 33.576 55.9331 34.1892C55.9749 34.8024 56.0593 35.883 56.1198 36.5906C56.2699 38.3372 59.4961 39.0218 62.2428 37.8898C65.3167 36.6226 66.0261 37.672 63.4706 39.7048C61.5677 41.2188 61.4878 41.4641 62.5976 42.3805C63.5751 43.1884 64.1121 43.2084 65.2831 42.4808C66.0881 41.9806 67.0306 41.7465 67.3778 41.9598C67.7259 42.1739 68.4002 41.8803 68.8774 41.308C69.4965 40.5655 69.5122 40.124 68.9319 39.7672C68.4846 39.4922 68.3188 38.639 68.5638 37.8712C69.1366 36.0733 67.8401 33.6749 65.9769 33.0862C65.1755 32.8335 63.4639 33.1695 62.1726 33.8339C59.2213 35.3531 58.467 34.708 60.5782 32.4716C61.8299 31.1456 61.9934 30.5599 61.3034 29.8732C60.2123 28.7873 59.4543 28.7472 58.8367 29.7416ZM29.6443 73.4064C28.2089 74.36 27.1671 77.0022 27.5913 78.6143C28.0999 80.5497 43.1688 93.7705 47.4659 96.0508C50.3493 97.5811 51.8183 97.7521 64.0718 97.978C77.1191 98.2196 77.5874 98.282 80.001 100.109L82.4886 101.991L93.8168 101.1C100.048 100.61 105.557 100.084 106.058 99.9328C107.83 99.3984 100.45 82.5059 96.6957 78.5043C92.6272 74.1675 90.1553 73.6153 74.7137 73.5974C61.6947 73.5826 60.6066 73.6851 59.2176 75.0676C57.2468 77.029 57.3334 78.4627 59.5574 80.6753C61.2153 82.3261 61.9949 82.5 67.7281 82.5C73.9146 82.5 76.3245 83.3755 74.0625 84.8011C72.8698 85.5532 57.9838 85.6833 53.7039 84.9802C51.8466 84.6747 47.6929 82.4056 42.1539 78.6708C33.9712 73.1522 31.5561 72.1362 29.6443 73.4064ZM101.038 103.722C100.422 103.853 95.465 104.358 90.0231 104.843L80.128 105.726V107.863V110H95.064H110V106.655V103.311L106.079 103.397C103.923 103.445 101.655 103.59 101.038 103.722Z" fill="#345E90"/>
</svg>
