<svg width="153" height="150" viewBox="0 0 153 150" fill="none" xmlns="http://www.w3.org/2000/svg">
<path fill-rule="evenodd" clip-rule="evenodd" d="M75.5096 0.228003C73.9296 0.5201 71.9342 1.27018 70.4657 2.12423C63.2397 6.327 60.4301 15.0616 63.6074 23.4471C65.2553 27.7969 68.325 29.8164 74.5075 30.6185C76.8899 30.9277 79.9751 30.9684 81.0904 30.7052C82.704 30.3247 83.1676 30.0646 83.4314 29.3916C83.7764 28.5116 83.7432 26.4701 83.3441 24.0174C82.9104 21.3522 82.8713 19.1218 83.2459 18.4226C84.2469 16.5537 87.3307 15.1344 91.8469 14.4635C92.7632 14.3273 93.7344 14.216 94.0051 14.216C94.5564 14.216 94.5497 14.3697 94.085 12.3898C92.6128 6.1184 87.1075 1.04782 80.7982 0.15218C79.1887 -0.0762506 76.9858 -0.0447376 75.5096 0.228003ZM90.3236 16.0417C88.2219 16.4917 87.6404 16.6771 86.4195 17.2862C85.2858 17.8517 84.5264 18.5655 84.2941 19.2842C84.1079 19.8601 84.18 21.0024 84.5599 23.494C85.1493 27.3591 85.1312 28.5854 84.4612 30.1748C84.143 30.9296 84.0457 31.0195 83.1526 31.383C81.57 32.027 80.4658 32.2062 78.1908 32.1882C75.9192 32.1705 72.4522 31.7127 70.5912 31.1849C69.9891 31.0141 69.4743 30.897 69.4472 30.9247C69.3281 31.0461 71.4807 33.1005 72.3809 33.7244C73.6357 34.594 75.6194 35.5354 76.9369 35.8862C78.4373 36.2859 81.4302 36.3846 82.9766 36.0855C87.3796 35.2338 91.0446 32.3572 93.0066 28.213C93.9585 26.2024 94.1906 25.2008 94.2886 22.6798C94.3847 20.2134 94.1613 18.6925 93.4305 16.8334C92.9087 15.5063 92.87 15.4964 90.3236 16.0417ZM65.7161 36.6797C61.6328 37.6243 58.0371 40.6963 55.8511 45.1082C54.7741 47.2819 52.9629 53.179 52.0132 57.6037C50.8552 62.9993 50.5363 66.5766 50.6484 72.9132C50.738 77.9946 51.0628 82.0088 51.5455 84.0059C52.8627 89.4551 56.031 92.7357 60.851 93.6408C61.638 93.7888 67.6041 94.7514 74.1089 95.7802L85.9358 97.6508L90.4203 109.242C92.8869 115.617 95.0685 121.155 95.2683 121.55C96.1443 123.277 98.3857 124.943 100.416 125.375C105.63 126.485 110.351 122.014 109.685 116.6C109.571 115.675 108.54 112.861 104.122 101.432C101.14 93.7144 98.5106 87.0421 98.2802 86.6044C97.6423 85.393 96.2713 84.085 94.9394 83.4171C93.8126 82.8523 93.549 82.8012 83.4806 81.207L73.1752 79.5752V77.5609C73.1752 74.9841 73.4062 72.0063 73.8931 68.3102L74.2794 65.3765L73.8449 65.0317C72.2155 63.7387 69.6014 61.1197 67.8303 59.0063C64.6454 55.2055 61.7702 50.356 61.3969 48.1553C60.9544 45.546 62.5183 42.6041 64.9528 41.4666C68.1148 39.9891 71.6693 41.3939 73.3337 44.7789C73.9498 46.0318 75.3167 48.2008 76.2795 49.453C76.783 50.1079 77.0391 50.3278 77.1576 50.2069C77.4427 49.9159 77.3609 45.5119 77.0461 44.2095C76.156 40.5271 74.2484 37.9465 71.6586 36.9216C70.5019 36.4638 67.2259 36.3304 65.7161 36.6797ZM65.3732 42.6973C63.5969 43.6032 62.6177 45.2492 62.6307 47.3077C62.6378 48.4279 62.6914 48.6117 63.4654 50.1738C65.179 53.6321 68.1523 57.7179 71.2934 60.931C74.4951 64.2061 77.8826 66.6918 81.9294 68.7353C87.0502 71.3212 91.9013 72.5272 97.9396 72.7153C101.842 72.8369 103.251 72.491 104.472 71.1111C106.328 69.014 106.211 65.7456 104.214 63.9071C102.993 62.7835 102.481 62.6479 99.2796 62.598C94.5801 62.5249 91.5427 61.9333 87.8045 60.3631C81.7009 57.7993 75.31 51.6699 72.2492 45.4444C71.5732 44.0693 70.7636 43.2043 69.6486 42.665C68.8723 42.2896 68.5007 42.2101 67.5186 42.2101C66.5061 42.2099 66.1865 42.2825 65.3732 42.6973ZM1.68862 47.5411C1.30869 47.7457 0.78629 48.2198 0.527674 48.5946L0.057464 49.2759L0.0110699 69.9376C-0.0210611 84.3006 0.0159288 90.78 0.132855 91.1921C0.351032 91.9613 0.963559 92.6938 1.71668 93.0859C2.30413 93.3917 2.78061 93.3988 22.8719 93.3988C45.7884 93.3988 43.9483 93.4922 45.0268 92.2739C45.3248 91.9372 45.6434 91.3867 45.735 91.0506C45.9707 90.184 45.9683 50.6146 45.7325 49.6585C45.5127 48.768 44.7637 47.8466 43.9549 47.4716C43.3447 47.1888 42.4206 47.1757 22.8481 47.1724L2.37952 47.1688L1.68862 47.5411ZM25.8962 53.4505C26.0457 53.5622 26.1786 53.7962 26.1913 53.9704C26.2038 54.1448 25.3835 56.5785 24.3681 59.379C23.3528 62.1793 22.561 64.5103 22.6086 64.5591C22.6564 64.6078 24.5659 64.1701 26.8521 63.5865C29.1383 63.003 31.1457 62.5255 31.313 62.5255C31.4804 62.5255 31.7614 62.7127 31.9376 62.9412C32.2322 63.3234 32.2401 63.4011 32.0349 63.9021C31.2782 65.7505 20.419 89.3113 20.2392 89.4948C19.7167 90.0281 18.6245 89.6012 18.6364 88.8684C18.6396 88.6766 19.5834 84.5967 20.734 79.8017C21.8846 75.0068 22.7773 71.0643 22.7177 71.0406C22.658 71.0168 20.7215 71.4667 18.4142 72.0404C16.1068 72.6139 14.0143 73.0832 13.7641 73.0832C13.4646 73.0832 13.2296 72.9597 13.077 72.7218C12.8633 72.3891 13.0202 71.6235 15.0523 63.0839C16.2664 57.9818 17.3675 53.6813 17.4993 53.5274C17.7156 53.2747 18.1225 53.2475 21.6815 53.2475C24.6202 53.2475 25.6933 53.2992 25.8962 53.4505ZM121.372 62.689C114.934 64.0079 111.758 71.731 115.333 77.3757C116.897 79.8456 119.277 81.3691 122.164 81.7495C123.315 81.9013 123.51 81.8864 124.15 81.5973C124.629 81.3809 125.02 81.0383 125.355 80.5411C127.848 76.8438 127.797 67.0647 125.267 63.6798C124.445 62.5799 123.312 62.2916 121.372 62.689ZM106.991 68.7417C106.681 71.098 104.525 73.3318 102.046 73.8645C100.588 74.1778 94.246 74.0068 93.0209 73.621C92.7555 73.5375 92.7371 73.5898 92.8369 74.1455C92.9869 74.9813 93.3571 75.5934 94.0662 76.1784C94.5544 76.5812 94.8334 76.6794 95.6383 76.7315C96.5483 76.7907 96.8346 76.7107 99.7401 75.5855C101.458 74.9202 102.882 74.3951 102.905 74.4184C102.959 74.4738 116.905 115.978 116.905 116.084C116.905 116.128 117.346 115.733 117.884 115.207C120.961 112.199 125.142 110.054 129.359 109.32C131.338 108.976 134.568 108.974 136.493 109.315C138.237 109.623 140.477 110.333 142.121 111.098C144.955 112.416 148.506 115.393 150.302 117.957C151.049 119.022 151.196 119.153 151.647 119.153C151.954 119.153 152.324 119.003 152.588 118.772C152.942 118.461 153.018 118.27 152.997 117.741C152.931 116.065 149.936 111.705 147.195 109.299C142.953 105.573 138.021 103.64 131.976 103.335L130.042 103.237L129.197 100.917C126.911 94.6431 124.052 90.6493 119.153 86.886C117.724 85.7883 115.033 84.1478 113.524 83.455L112.375 82.927L111.006 78.845C108.154 70.3395 107.53 68.5655 107.306 68.3365C107.102 68.1291 107.065 68.1774 106.991 68.7417ZM14.0838 97.2779C12.9232 98.084 12.9154 98.1166 12.8607 102.328C12.8336 104.411 12.8557 106.424 12.91 106.8C13.0478 107.755 13.9393 108.702 14.8384 108.849C15.2001 108.908 15.496 109.017 15.496 109.092C15.496 109.166 15.2763 109.787 15.0077 110.471C11.5378 119.31 9.1692 128.223 8.81827 133.762L8.71012 135.47H14.0737H19.437L19.3082 134.55C19.2374 134.044 19.1826 132.334 19.1867 130.751C19.1933 128.189 19.2397 127.685 19.6069 126.185C20.688 121.768 22.3705 118.701 25.447 115.54C29.6403 111.23 34.7759 109.064 40.809 109.06C46.5893 109.057 51.8295 111.276 55.9401 115.469C59.1031 118.695 61.0867 122.455 61.9773 126.911C62.2952 128.502 62.3825 132.277 62.1486 134.31L62.0151 135.47H86.8113H111.608L111.474 134.31C111.401 133.672 111.347 131.944 111.354 130.471L111.368 127.791H91.5891H71.81L71.1773 126.392C69.3519 122.353 67.8758 117.118 67.2203 112.357C66.7045 108.611 66.6896 108.958 67.3855 108.509C68.449 107.824 68.4731 107.699 68.4731 102.868C68.4731 98.6607 68.4653 98.5529 68.1173 98.0215C67.9217 97.7225 67.5161 97.352 67.2161 97.1983C66.7034 96.9353 65.1094 96.9185 40.6363 96.9183L14.602 96.918L14.0838 97.2779ZM37.0474 112.593C33.2807 113.373 30.2594 115.065 27.4864 117.947C25.1128 120.415 23.6602 123.024 22.7454 126.462C22.3589 127.914 22.328 128.265 22.3313 131.151C22.3348 134.024 22.3682 134.396 22.7556 135.87C23.299 137.937 24.7435 140.912 26.0728 142.703C28.6481 146.172 32.5843 148.679 36.969 149.643C38.632 150.008 42.4794 150.052 44.1005 149.725C52.9388 147.938 59.2256 140.218 59.2256 131.151C59.2256 126.16 57.3094 121.383 53.8966 117.868C51.1159 115.004 47.9346 113.282 44.0325 112.526C42.2493 112.181 38.8846 112.213 37.0474 112.593ZM129.588 112.523C120.511 114.2 114.046 122.466 114.455 131.87C114.678 136.998 116.521 141.176 120.143 144.766C127.311 151.87 139.003 151.724 146.059 144.442C149.584 140.804 151.387 136.308 151.387 131.154C151.387 127.761 150.736 125.05 149.236 122.193C146.58 117.131 141.674 113.482 136.221 112.512C134.577 112.219 131.2 112.225 129.588 112.523ZM42.6341 123.925C47.9846 125.439 49.8158 132.121 46.0067 136.232C43.1276 139.339 38.4721 139.379 35.5011 136.322C33.6731 134.442 32.9882 131.811 33.6513 129.218C34.6764 125.211 38.7324 122.821 42.6341 123.925ZM134.664 123.871C136.026 124.233 137.092 124.854 138.077 125.859C141.617 129.473 140.675 135.474 136.209 137.754C134.221 138.769 132.338 138.856 130.188 138.031C127.15 136.867 125.145 133.281 125.689 129.986C126.406 125.651 130.603 122.791 134.664 123.871Z" fill="#345E90"/>
</svg>
