<svg width="18" height="18" viewBox="0 0 18 18" fill="none" xmlns="http://www.w3.org/2000/svg">
<path fill-rule="evenodd" clip-rule="evenodd" d="M13.4358 12.085L17.3758 16.095C17.5523 16.2858 17.6476 16.5378 17.6414 16.7976C17.6353 17.0575 17.5283 17.3047 17.3431 17.487C17.1578 17.6693 16.9088 17.7722 16.6489 17.7741C16.389 17.776 16.1386 17.6766 15.9508 17.497L12.0128 13.491C10.4933 14.6357 8.59564 15.1602 6.70403 14.9583C4.81242 14.7564 3.06821 13.8432 1.82457 12.4036C0.580937 10.9641 -0.0691871 9.1057 0.00584037 7.20482C0.0808678 5.30394 0.875439 3.5026 2.22867 2.16554C3.5819 0.828478 5.39266 0.0556121 7.2943 0.0034347C9.19594 -0.0487427 11.0464 0.623667 12.4709 1.88451C13.8954 3.14536 14.7875 4.90042 14.9667 6.79432C15.1458 8.68823 14.5986 10.5794 13.4358 12.085ZM7.49975 13C8.95845 13 10.3574 12.4206 11.3888 11.3891C12.4203 10.3577 12.9998 8.95872 12.9998 7.50003C12.9998 6.04134 12.4203 4.64239 11.3888 3.61094C10.3574 2.57949 8.95845 2.00003 7.49975 2.00003C6.04106 2.00003 4.64212 2.57949 3.61067 3.61094C2.57922 4.64239 1.99976 6.04134 1.99976 7.50003C1.99976 8.95872 2.57922 10.3577 3.61067 11.3891C4.64212 12.4206 6.04106 13 7.49975 13Z" fill="#003767"/>
</svg>
