<svg width="24" height="25" viewBox="0 0 24 25" fill="none" xmlns="http://www.w3.org/2000/svg">
<path d="M14.397 19.7157C14.7164 19.7157 15.0228 19.5896 15.2486 19.3653C15.4745 19.141 15.6014 18.8368 15.6014 18.5196V16.1274C15.6014 15.8102 15.4745 15.506 15.2486 15.2817C15.0228 15.0574 14.7164 14.9313 14.397 14.9313C14.0776 14.9313 13.7713 15.0574 13.5454 15.2817C13.3196 15.506 13.1927 15.8102 13.1927 16.1274V18.5196C13.1927 18.8368 13.3196 19.141 13.5454 19.3653C13.7713 19.5896 14.0776 19.7157 14.397 19.7157ZM9.57971 19.7157C9.89911 19.7157 10.2054 19.5896 10.4313 19.3653C10.6572 19.141 10.784 18.8368 10.784 18.5196V16.1274C10.784 15.8102 10.6572 15.506 10.4313 15.2817C10.2054 15.0574 9.89911 14.9313 9.57971 14.9313C9.2603 14.9313 8.95397 15.0574 8.72812 15.2817C8.50226 15.506 8.37537 15.8102 8.37537 16.1274V18.5196C8.37537 18.8368 8.50226 19.141 8.72812 19.3653C8.95397 19.5896 9.2603 19.7157 9.57971 19.7157ZM20.4187 5.36274H18.7567L16.6732 1.23628C16.6095 1.08444 16.515 0.947276 16.3956 0.833355C16.2761 0.719433 16.1343 0.631204 15.979 0.574182C15.8236 0.517159 15.6581 0.492568 15.4928 0.501946C15.3274 0.511323 15.1658 0.554468 15.018 0.628683C14.8702 0.702898 14.7394 0.806589 14.6338 0.933275C14.5282 1.05996 14.45 1.20692 14.4042 1.36497C14.3583 1.52302 14.3458 1.68876 14.3674 1.85184C14.3889 2.01491 14.4441 2.17182 14.5295 2.31275L16.059 5.36274H7.91773L9.44723 2.31275C9.56413 2.03395 9.5705 1.72155 9.46508 1.43828C9.35965 1.15501 9.15023 0.921827 8.87886 0.785557C8.60749 0.649286 8.29425 0.620014 8.00205 0.703617C7.70985 0.78722 7.4603 0.977509 7.30352 1.23628L5.22003 5.36274H3.55805C2.70682 5.3756 1.8875 5.68657 1.24459 6.24082C0.601689 6.79506 0.176502 7.55697 0.0440219 8.39217C-0.0884583 9.22737 0.080279 10.0822 0.520474 10.8059C0.960668 11.5296 1.64404 12.0757 2.45007 12.3478L3.34127 21.2705C3.43114 22.1587 3.85112 22.9817 4.5192 23.5789C5.18727 24.176 6.05547 24.5044 6.95426 24.5H17.0466C17.9453 24.5044 18.8135 24.176 19.4816 23.5789C20.1497 22.9817 20.5697 22.1587 20.6595 21.2705L21.5507 12.3478C22.3585 12.0749 23.043 11.5268 23.4829 10.8007C23.9227 10.0746 24.0897 9.21725 23.9541 8.38061C23.8185 7.54397 23.3891 6.78199 22.742 6.22963C22.0949 5.67726 21.2719 5.37017 20.4187 5.36274ZM18.2388 21.0313C18.2089 21.3274 18.0689 21.6017 17.8462 21.8008C17.6235 21.9998 17.3341 22.1093 17.0345 22.1078H6.94222C6.64262 22.1093 6.35322 21.9998 6.13053 21.8008C5.90784 21.6017 5.76785 21.3274 5.73789 21.0313L4.88282 12.5392H19.0939L18.2388 21.0313ZM20.4187 10.147H3.55805C3.23864 10.147 2.93232 10.021 2.70646 9.79672C2.48061 9.57241 2.35372 9.26819 2.35372 8.95097C2.35372 8.63375 2.48061 8.32952 2.70646 8.10522C2.93232 7.88091 3.23864 7.75489 3.55805 7.75489H20.4187C20.7381 7.75489 21.0444 7.88091 21.2703 8.10522C21.4961 8.32952 21.623 8.63375 21.623 8.95097C21.623 9.26819 21.4961 9.57241 21.2703 9.79672C21.0444 10.021 20.7381 10.147 20.4187 10.147Z" fill="#FF4822"/>
</svg>
