<svg width="17" height="10" viewBox="0 0 17 10" fill="none" xmlns="http://www.w3.org/2000/svg">
<path d="M2.5 1.66667H14.1667C14.3877 1.66667 14.5996 1.57887 14.7559 1.42259C14.9122 1.26631 15 1.05435 15 0.833333C15 0.61232 14.9122 0.400358 14.7559 0.244078C14.5996 0.0877975 14.3877 0 14.1667 0H2.5C2.27899 0 2.06702 0.0877975 1.91074 0.244078C1.75446 0.400358 1.66667 0.61232 1.66667 0.833333C1.66667 1.05435 1.75446 1.26631 1.91074 1.42259C2.06702 1.57887 2.27899 1.66667 2.5 1.66667ZM15.8333 4.16667H0.833333C0.61232 4.16667 0.400358 4.25446 0.244078 4.41074C0.0877973 4.56702 0 4.77899 0 5C0 5.22101 0.0877973 5.43297 0.244078 5.58926C0.400358 5.74554 0.61232 5.83333 0.833333 5.83333H15.8333C16.0543 5.83333 16.2663 5.74554 16.4226 5.58926C16.5789 5.43297 16.6667 5.22101 16.6667 5C16.6667 4.77899 16.5789 4.56702 16.4226 4.41074C16.2663 4.25446 16.0543 4.16667 15.8333 4.16667ZM14.1667 8.33333H2.5C2.27899 8.33333 2.06702 8.42113 1.91074 8.57741C1.75446 8.73369 1.66667 8.94565 1.66667 9.16667C1.66667 9.38768 1.75446 9.59964 1.91074 9.75592C2.06702 9.9122 2.27899 10 2.5 10H14.1667C14.3877 10 14.5996 9.9122 14.7559 9.75592C14.9122 9.59964 15 9.38768 15 9.16667C15 8.94565 14.9122 8.73369 14.7559 8.57741C14.5996 8.42113 14.3877 8.33333 14.1667 8.33333Z" fill="white"/>
</svg>
