<svg width="23" height="20" viewBox="0 0 23 20" fill="none" xmlns="http://www.w3.org/2000/svg">
<path d="M9.80868 1.09156C10.294 1.4081 10.7338 1.7876 11.1111 2.22222C11.4884 1.7876 11.9283 1.4081 12.4135 1.09156C13.4859 0.392041 14.7801 0 16.1111 0C19.5333 0 22.2222 2.6376 22.2222 5.99455C22.2222 7.1874 21.938 8.32014 21.4512 9.39778C19.9414 12.743 16.4824 15.5659 13.505 17.9959L13.3447 18.1267C12.546 18.7787 11.7855 19.4023 11.1111 20C10.3917 19.3625 9.57445 18.6955 8.71725 17.9959L8.71722 17.9959C5.73973 15.5659 2.28067 12.7429 0.770921 9.3976C0.284158 8.32002 0 7.18734 0 5.99455C0 2.6376 2.68889 0 6.11111 0C7.44214 0 8.7363 0.392041 9.80868 1.09156Z" fill="#FF4822"/>
</svg>
