<svg width="8" height="5" viewBox="0 0 8 5" fill="none" xmlns="http://www.w3.org/2000/svg">
<path fill-rule="evenodd" clip-rule="evenodd" d="M7.70842 4.70706C7.89523 4.51817 8 4.26322 8 3.99756C8 3.7319 7.89523 3.47695 7.70842 3.28806L4.76942 0.323059C4.55142 0.108059 4.26942 0.00105953 3.99042 0.00105953C3.71142 0.00105953 3.43442 0.108059 3.22142 0.323059L0.29142 3.27806C0.104854 3.46708 0.000244141 3.72197 0.000244141 3.98756C0.000244141 4.25314 0.104854 4.50804 0.29142 4.69706C0.383251 4.79024 0.492692 4.86424 0.613379 4.91475C0.734066 4.96526 0.86359 4.99127 0.99442 4.99127C1.12525 4.99127 1.25477 4.96526 1.37546 4.91475C1.49615 4.86424 1.60559 4.79024 1.69742 4.69706L3.99542 2.38006L6.30242 4.70706C6.39446 4.79988 6.50396 4.87356 6.62462 4.92383C6.74528 4.97411 6.8747 5 7.00542 5C7.13614 5 7.26556 4.97411 7.38622 4.92383C7.50688 4.87356 7.61638 4.79988 7.70842 4.70706Z" fill="#003767"/>
</svg>
