<svg width="8" height="5" viewBox="0 0 8 5" fill="none" xmlns="http://www.w3.org/2000/svg">
<path fill-rule="evenodd" clip-rule="evenodd" d="M0.29158 0.292941C0.104773 0.481833 0 0.736777 0 1.00244C0 1.2681 0.104773 1.52305 0.29158 1.71194L3.23058 4.67694C3.44858 4.89194 3.73058 4.99894 4.00958 4.99894C4.28858 4.99894 4.56558 4.89194 4.77858 4.67694L7.70858 1.72194C7.89515 1.53292 7.99976 1.27803 7.99976 1.01244C7.99976 0.746856 7.89515 0.49196 7.70858 0.302941C7.61675 0.209757 7.50731 0.135759 7.38662 0.0852509C7.26593 0.0347429 7.13641 0.0087328 7.00558 0.0087328C6.87475 0.0087328 6.74523 0.0347429 6.62454 0.0852509C6.50385 0.135759 6.39441 0.209757 6.30258 0.302941L4.00458 2.61994L1.69758 0.292941C1.60554 0.20012 1.49604 0.126444 1.37538 0.0761652C1.25472 0.0258864 1.1253 0 0.99458 0C0.863865 0 0.734443 0.0258864 0.613784 0.0761652C0.493125 0.126444 0.383617 0.20012 0.29158 0.292941Z" fill="#003767"/>
</svg>
