<svg width="54" height="44" viewBox="0 0 54 44" fill="none" xmlns="http://www.w3.org/2000/svg">
<path d="M3.75488 23.5151V33.4889C3.75488 34.018 3.97129 34.5253 4.3565 34.8994C4.74171 35.2735 5.26417 35.4837 5.80894 35.4837H7.86299C7.86299 37.0708 8.51222 38.5929 9.66785 39.7152C10.8235 40.8375 12.3908 41.468 14.0252 41.468C15.6595 41.468 17.2268 40.8375 18.3825 39.7152C19.5381 38.5929 20.1873 37.0708 20.1873 35.4837H32.5116C32.5116 37.0708 33.1609 38.5929 34.3165 39.7152C35.4721 40.8375 37.0395 41.468 38.6738 41.468C40.3081 41.468 41.8755 40.8375 43.0311 39.7152C44.1867 38.5929 44.836 37.0708 44.836 35.4837H46.89C47.4348 35.4837 47.9572 35.2735 48.3424 34.8994C48.7277 34.5253 48.9441 34.018 48.9441 33.4889V9.55169C48.9441 7.96455 48.2948 6.44242 47.1392 5.32015C45.9836 4.19787 44.4162 3.56738 42.7819 3.56738H24.2954C22.6611 3.56738 21.0937 4.19787 19.9381 5.32015C18.7825 6.44242 18.1333 7.96455 18.1333 9.55169V13.5412H14.0252C13.0685 13.5412 12.125 13.7575 11.2693 14.173C10.4137 14.5885 9.66941 15.1917 9.09542 15.9349L4.16569 22.3182C4.10562 22.4049 4.05729 22.4988 4.02191 22.5975L3.89867 22.8169C3.80801 23.0394 3.75931 23.2759 3.75488 23.5151V23.5151ZM36.6197 35.4837C36.6197 35.0892 36.7402 34.7035 36.9659 34.3754C37.1916 34.0474 37.5124 33.7917 37.8877 33.6408C38.2631 33.4898 38.6761 33.4503 39.0745 33.5272C39.473 33.6042 39.839 33.7942 40.1262 34.0732C40.4135 34.3521 40.6091 34.7076 40.6884 35.0945C40.7676 35.4815 40.727 35.8825 40.5715 36.247C40.416 36.6115 40.1528 36.9231 39.815 37.1423C39.4772 37.3615 39.0801 37.4784 38.6738 37.4784C38.129 37.4784 37.6066 37.2683 37.2214 36.8942C36.8362 36.5201 36.6197 36.0127 36.6197 35.4837ZM22.2414 9.55169C22.2414 9.02264 22.4578 8.51527 22.843 8.14117C23.2282 7.76708 23.7507 7.55692 24.2954 7.55692H42.7819C43.3267 7.55692 43.8491 7.76708 44.2343 8.14117C44.6196 8.51527 44.836 9.02264 44.836 9.55169V31.4941H43.2338C42.6562 30.8771 41.9522 30.384 41.167 30.0466C40.3817 29.7092 39.5325 29.5349 38.6738 29.5349C37.8151 29.5349 36.9659 29.7092 36.1806 30.0466C35.3954 30.384 34.6914 30.8771 34.1138 31.4941H22.2414V9.55169ZM18.1333 21.5203H9.91704L12.3819 18.3287C12.5732 18.0809 12.8213 17.8798 13.1066 17.7414C13.3918 17.6029 13.7063 17.5308 14.0252 17.5308H18.1333V21.5203ZM11.9711 35.4837C11.9711 35.0892 12.0916 34.7035 12.3173 34.3754C12.543 34.0474 12.8638 33.7917 13.2391 33.6408C13.6144 33.4898 14.0274 33.4503 14.4259 33.5272C14.8243 33.6042 15.1903 33.7942 15.4776 34.0732C15.7649 34.3521 15.9605 34.7076 16.0397 35.0945C16.119 35.4815 16.0783 35.8825 15.9229 36.247C15.7674 36.6115 15.5041 36.9231 15.1663 37.1423C14.8285 37.3615 14.4314 37.4784 14.0252 37.4784C13.4804 37.4784 12.9579 37.2683 12.5727 36.8942C12.1875 36.5201 11.9711 36.0127 11.9711 35.4837ZM7.86299 25.5098H18.1333V31.0553C16.921 30.0032 15.3298 29.4589 13.7061 29.5411C12.0825 29.6233 10.5582 30.3253 9.46515 31.4941H7.86299V25.5098Z" fill="#003767"/>
</svg>
