<svg width="37" height="39" viewBox="0 0 37 39" fill="none" xmlns="http://www.w3.org/2000/svg">
<path d="M13.9458 16.7447H18.4052C18.8783 16.7447 19.332 16.5443 19.6666 16.1875C20.0011 15.8308 20.189 15.3469 20.189 14.8424C20.189 14.3379 20.0011 13.854 19.6666 13.4972C19.332 13.1405 18.8783 12.9401 18.4052 12.9401H16.6214V11.9889C16.6214 11.4844 16.4335 11.0005 16.099 10.6437C15.7645 10.287 15.3108 10.0866 14.8377 10.0866C14.3646 10.0866 13.9109 10.287 13.5763 10.6437C13.2418 11.0005 13.0539 11.4844 13.0539 11.9889V13.0352C11.9701 13.2699 11.0067 13.9256 10.3508 14.8752C9.69493 15.8248 9.39327 17.0004 9.50441 18.1738C9.61555 19.3472 10.1316 20.4348 10.9523 21.2253C11.773 22.0158 12.8399 22.4529 13.9458 22.4517H15.7296C15.9661 22.4517 16.193 22.5519 16.3602 22.7303C16.5275 22.9086 16.6214 23.1506 16.6214 23.4028C16.6214 23.6551 16.5275 23.897 16.3602 24.0754C16.193 24.2538 15.9661 24.354 15.7296 24.354H11.2701C10.797 24.354 10.3433 24.5544 10.0088 24.9112C9.67425 25.2679 9.48631 25.7518 9.48631 26.2563C9.48631 26.7609 9.67425 27.2447 10.0088 27.6015C10.3433 27.9582 10.797 28.1587 11.2701 28.1587H13.0539V29.1098C13.0539 29.6143 13.2418 30.0982 13.5763 30.455C13.9109 30.8117 14.3646 31.0121 14.8377 31.0121C15.3108 31.0121 15.7645 30.8117 16.099 30.455C16.4335 30.0982 16.6214 29.6143 16.6214 29.1098V28.0635C17.7052 27.8288 18.6686 27.1731 19.3245 26.2235C19.9804 25.2739 20.2821 24.0983 20.1709 22.9249C20.0598 21.7515 19.5438 20.6639 18.723 19.8734C17.9023 19.0829 16.8355 18.6458 15.7296 18.647H13.9458C13.7092 18.647 13.4824 18.5468 13.3151 18.3684C13.1478 18.1901 13.0539 17.9481 13.0539 17.6959C13.0539 17.4436 13.1478 17.2017 13.3151 17.0233C13.4824 16.8449 13.7092 16.7447 13.9458 16.7447ZM34.4593 19.5982H29.1079V2.47727C29.1092 2.14206 29.0273 1.81245 28.8707 1.52182C28.7141 1.23119 28.4882 0.989849 28.216 0.822246C27.9449 0.655282 27.6373 0.567383 27.3241 0.567383C27.011 0.567383 26.7034 0.655282 26.4323 0.822246L21.0809 4.09424L15.7296 0.822246C15.4584 0.655282 15.1508 0.567383 14.8377 0.567383C14.5245 0.567383 14.2169 0.655282 13.9458 0.822246L8.59442 4.09424L3.24307 0.822246C2.9719 0.655282 2.6643 0.567383 2.35118 0.567383C2.03806 0.567383 1.73046 0.655282 1.45929 0.822246C1.18708 0.989849 0.961223 1.23119 0.804601 1.52182C0.647979 1.81245 0.566149 2.14206 0.567397 2.47727V32.9145C0.567397 34.428 1.1312 35.8796 2.13477 36.9499C3.13834 38.0202 4.49948 38.6214 5.91875 38.6214H30.8917C32.311 38.6214 33.6721 38.0202 34.6757 36.9499C35.6793 35.8796 36.2431 34.428 36.2431 32.9145V21.5005C36.2431 20.996 36.0551 20.5121 35.7206 20.1554C35.3861 19.7986 34.9324 19.5982 34.4593 19.5982ZM5.91875 34.8168C5.44566 34.8168 4.99195 34.6164 4.65742 34.2596C4.3229 33.9029 4.13496 33.419 4.13496 32.9145V5.76829L7.70253 7.93694C7.97784 8.09029 8.28383 8.17038 8.59442 8.17038C8.90502 8.17038 9.21101 8.09029 9.48631 7.93694L14.8377 4.66494L20.189 7.93694C20.4643 8.09029 20.7703 8.17038 21.0809 8.17038C21.3915 8.17038 21.6975 8.09029 21.9728 7.93694L25.5404 5.76829V32.9145C25.5452 33.5634 25.6538 34.2068 25.8614 34.8168H5.91875ZM32.6755 32.9145C32.6755 33.419 32.4876 33.9029 32.153 34.2596C31.8185 34.6164 31.3648 34.8168 30.8917 34.8168C30.4186 34.8168 29.9649 34.6164 29.6304 34.2596C29.2959 33.9029 29.1079 33.419 29.1079 32.9145V23.4028H32.6755V32.9145Z" fill="#003767"/>
</svg>
